<svg xmlns="http://www.w3.org/2000/svg">
  <defs>
    <symbol id="archive" viewBox="0 0 24 24">
      <polyline points="21 8 21 21 3 21 3 8"></polyline>
      <rect x="1" y="3" width="22" height="5"></rect>
      <line x1="10" y1="12" x2="14" y2="12"></line>
    </symbol>

    <symbol id="contact" viewBox="0 0 24 24">
      <path stroke="none" d="M0 0h24v24H0z" fill="none"/>
      <path d="M4 21v-13a3 3 0 0 1 3 -3h10a3 3 0 0 1 3 3v6a3 3 0 0 1 -3 3h-9l-4 4" />
      <line x1="8" y1="9" x2="16" y2="9" />
      <line x1="8" y1="13" x2="14" y2="13" />
    </symbol>

     <symbol id="elements" viewBox="0 0 24 24">
      <path d="M12 19l7-7 3 3-7 7-3-3z"></path>
      <path d="M18 13l-1.5-7.5L2 2l3.5 14.5L13 18l5-5z"></path>
      <path d="M2 2l7.586 7.586"></path>
      <circle cx="11" cy="11" r="2"></circle>
    </symbol>

    <symbol id="home-1" viewBox="0 0 24 24">
      <path d="M3 9l9-7 9 7v11a2 2 0 0 1-2 2H5a2 2 0 0 1-2-2z"></path>
      <polyline points="9 22 9 12 15 12 15 22"></polyline>
    </symbol>

    <symbol id="home-2" viewBox="0 0 24 24">
      <path stroke="none" d="M0 0h24v24H0z" fill="none"/>
      <polyline points="5 12 3 12 12 3 21 12 19 12" />
      <path d="M5 12v7a2 2 0 0 0 2 2h10a2 2 0 0 0 2 -2v-7" />
      <rect x="10" y="12" width="4" height="4" />
    </symbol>

    <symbol id="home-3" viewBox="0 0 24 24">
      <path d="M19 8.71l-5.333 -4.148a2.666 2.666 0 0 0 -3.274 0l-5.334 4.148a2.665 2.665 0 0 0 -1.029 2.105v7.2a2 2 0 0 0 2 2h12a2 2 0 0 0 2 -2v-7.2c0 -.823 -.38 -1.6 -1.03 -2.105" />
      <path d="M16 15c-2.21 1.333 -5.792 1.333 -8 0" />
    </symbol>

    <symbol id="membership" viewBox="0 0 24 24">
      <path d="M16 21v-2a4 4 0 0 0-4-4H5a4 4 0 0 0-4 4v2"></path>
      <circle cx="8.5" cy="7" r="4"></circle>
      <line x1="20" y1="8" x2="20" y2="14"></line>
      <line x1="23" y1="11" x2="17" y2="11"></line>
    </symbol>

    <symbol id="post-default" viewBox="0 0 24 24">
      <path stroke="none" d="M0 0h24v24H0z" fill="none"/>
      <rect x="4" y="4" width="16" height="16" rx="2" />
      <line x1="4" y1="9" x2="20" y2="9" />
    </symbol>

    <symbol id="post-sidebar" viewBox="0 0 24 24">
      <path stroke="none" d="M0 0h24v24H0z" fill="none"/>
      <rect x="4" y="4" width="16" height="16" rx="2" />
      <line x1="15" y1="4" x2="15" y2="20" />
    </symbol>

    <symbol id="post-toc" viewBox="0 0 24 24">
      <path d="M14 2H6a2 2 0 0 0-2 2v16a2 2 0 0 0 2 2h12a2 2 0 0 0 2-2V8z"></path>
      <polyline points="14 2 14 8 20 8"></polyline>
      <line x1="16" y1="13" x2="8" y2="13"></line>
      <line x1="16" y1="17" x2="8" y2="17"></line>
      <polyline points="10 9 9 9 8 9"></polyline>
    </symbol>

    <symbol id="tags" viewBox="0 0 24 24">
      <path d="M20.59 13.41l-7.17 7.17a2 2 0 0 1-2.83 0L2 12V2h10l8.59 8.59a2 2 0 0 1 0 2.82z"></path>
      <line x1="7" y1="7" x2="7.01" y2="7"></line>
    </symbol>

  </defs>
</svg>